HIERARCHY
ROOT Hips
{
    OFFSET 0.000000 0.000000 0.000000
    CHANNELS 6 Xposition Yposition Zposition Zrotation Xrotation Yrotation
    JOINT Spine
    {
        OFFSET -0.000000 7.246840 0.000000
        CHANNELS 3 Zrotation Xrotation Yrotation
        JOINT Spine1
        {
            OFFSET -0.000000 20.289354 0.000000
            CHANNELS 3 Zrotation Xrotation Yrotation
            JOINT Neck
            {
                OFFSET -0.000000 20.206032 1.836912
                CHANNELS 3 Zrotation Xrotation Yrotation
                JOINT Head
                {
                    OFFSET -0.000000 12.372654 -1.767522
                    CHANNELS 3 Zrotation Xrotation Yrotation
                    End Site
                    {
                        OFFSET -0.000000 22.094025 0.000000
                    }
                }
            }
            JOINT LeftShoulder
            {
                OFFSET 3.465871 17.201674 -0.568930
                CHANNELS 3 Zrotation Xrotation Yrotation
                JOINT LeftArm
                {
                    OFFSET 14.070313 0.000000 0.000000
                    CHANNELS 3 Zrotation Xrotation Yrotation
                    JOINT LeftForeArm
                    {
                        OFFSET 26.549477 0.000000 0.000000
                        CHANNELS 3 Zrotation Xrotation Yrotation
                        JOINT LeftHand
                        {
                            OFFSET 18.880413 0.000000 0.000000
                            CHANNELS 3 Zrotation Xrotation Yrotation
                            End Site
                            {
                                OFFSET 13.256415 0.000000 0.000000
                            }
                        }
                    }
                }
            }
            JOINT RightShoulder
            {
                OFFSET -3.526370 17.201674 -0.568930
                CHANNELS 3 Zrotation Xrotation Yrotation
                JOINT RightArm
                {
                    OFFSET -14.070313 0.000000 0.000000
                    CHANNELS 3 Zrotation Xrotation Yrotation
                    JOINT RightForeArm
                    {
                        OFFSET -26.549477 0.000000 0.000000
                        CHANNELS 3 Zrotation Xrotation Yrotation
                        JOINT RightHand
                        {
                            OFFSET -18.880413 0.000000 0.000000
                            CHANNELS 3 Zrotation Xrotation Yrotation
                            End Site
                            {
                                OFFSET -13.256415 0.000000 0.000000
                            }
                        }
                    }
                }
            }
        }
    }
    JOINT LeftUpLeg
    {
        OFFSET 8.837609 0.000000 0.000000
        CHANNELS 3 Zrotation Xrotation Yrotation
        JOINT LeftLeg
        {
            OFFSET -0.000000 -41.345005 0.000000
            CHANNELS 3 Zrotation Xrotation Yrotation
            JOINT LeftFoot
            {
                OFFSET -0.000000 -35.500874 0.000000
                CHANNELS 3 Zrotation Xrotation Yrotation
                JOINT LeftToeBase
                {
                    OFFSET -0.000000 -5.744446 13.256415
                    CHANNELS 3 Zrotation Xrotation Yrotation
                    End Site
                    {
                        OFFSET -0.000000 0.000000 3.535044
                    }
                }
            }
        }
    }
    JOINT RightUpLeg
    {
        OFFSET -8.837609 0.000000 0.000000
        CHANNELS 3 Zrotation Xrotation Yrotation
        JOINT RightLeg
        {
            OFFSET -0.000000 -41.345005 0.000000
            CHANNELS 3 Zrotation Xrotation Yrotation
            JOINT RightFoot
            {
                OFFSET -0.000000 -35.500874 0.000000
                CHANNELS 3 Zrotation Xrotation Yrotation
                JOINT RightToeBase
                {
                    OFFSET -0.000000 -5.744446 13.256415
                    CHANNELS 3 Zrotation Xrotation Yrotation
                    End Site
                    {
                        OFFSET -0.000000 0.000000 3.535044
                    }
                }
            }
        }
    }
}
MOTION
Frames:    11
Frame Time:    0.010000
6.166385    82.871674    -28.662502    1.612674    1.284016    -15.096980    -7.984875    -4.636253    -2.118793    0.853308    7.427071    -1.850338    15.514036    27.066177    2.050396    -6.424676    -23.442301    1.589266    13.933451    13.188725    7.101046    -81.062386    76.982727    24.195145    10.680387    -9.377798    -86.904160    20.377302    -6.055199    -36.615486    -16.869595    -6.182260    8.062730    -168.337479    28.910622    169.664551    111.528786    -5.186863    -60.517990    -81.603462    23.734377    83.589432    -1.719789    2.867852    5.365657    -0.786819    7.499924    1.799174    -0.139044    -5.096936    -0.685856    -0.928608    -5.686253    1.347527    -10.890688    -16.422033    -1.495453    -0.524125    27.002666    5.514966    21.426952    -3.658896    6.379189    -2.717775    -3.430190    5.062074    
6.025425    83.033913    -28.519939    1.496527    1.480856    -15.068271    -7.388490    -4.682097    -2.051424    0.118957    7.560923    -1.756749    16.448345    26.663731    2.032589    -6.803857    -23.477770    1.472648    14.019397    13.029524    6.954366    -82.868675    77.490417    26.601948    10.551805    -9.208982    -87.848854    21.630289    -6.235626    -36.457535    -17.372688    -6.685887    7.370209    -169.431686    28.520218    168.835632    109.836273    -2.055045    -61.893604    -81.910774    23.685347    83.707565    -1.484699    3.025101    5.534168    -0.723558    6.960488    2.417819    -0.730984    -4.611150    -1.762732    -0.927836    -5.843611    1.347826    -10.700806    -16.552372    -1.339462    -0.600029    26.839216    5.564344    21.124165    -3.845297    5.875011    -2.612778    -3.782195    4.886646    
5.896165    83.215393    -28.424463    1.447021    1.788807    -14.903070    -6.773784    -4.702039    -2.024602    -0.755607    7.387514    -1.697337    17.596861    26.640692    1.904010    -7.330172    -23.633911    1.264352    14.324119    13.054896    6.522939    -84.719017    77.596260    28.837877    10.803161    -8.862728    -88.501625    23.046427    -5.879227    -35.894966    -17.729839    -6.840707    6.798428    -170.586395    28.431461    168.010895    107.984520    1.283150    -63.639561    -82.394867    23.676449    84.052948    -1.273674    2.986447    5.588074    -0.676617    6.535573    2.459993    -1.279961    -4.129449    -2.140818    -0.872206    -5.882020    1.267345    -10.595362    -16.741249    -1.325845    -0.658850    26.494898    5.484649    20.577652    -4.062998    5.333748    -2.519295    -3.831241    4.714652    
5.742731    83.402695    -28.314829    1.369684    2.028961    -14.691513    -6.181028    -4.697345    -2.014725    -1.553409    7.306432    -1.661743    18.762356    26.483906    1.820133    -8.006503    -23.750593    1.028265    14.750807    13.340161    6.145094    -85.417488    77.720367    29.614986    10.849678    -8.570555    -89.067719    24.534714    -5.920833    -35.828201    -18.118111    -7.098166    6.314105    -171.764359    28.652464    167.287399    105.540512    4.424748    -65.821754    -82.266426    23.395796    84.782784    -1.034017    3.033783    5.700777    -0.620882    6.087487    2.482920    -1.895046    -3.642256    -2.606772    -0.805843    -5.913903    1.171171    -10.470913    -16.757248    -1.367086    -0.754832    25.946539    5.720917    20.173342    -4.390771    4.424685    -2.415583    -4.130974    4.536633    
5.626753    83.596695    -28.175640    1.282922    2.271787    -14.531323    -5.436983    -4.692486    -1.953214    -2.428362    7.131531    -1.578880    20.131151    26.521378    1.526708    -9.072965    -23.992186    0.485116    14.979149    13.818348    5.898653    -85.452065    78.223526    29.850447    10.941120    -8.425146    -89.629860    26.206970    -5.819865    -34.561024    -18.428703    -7.435899    5.920231    -173.330719    28.050484    166.549606    103.462433    8.231229    -67.330803    -82.680504    23.387962    84.549019    -0.860761    3.143601    5.787692    -0.489514    5.520760    2.664939    -2.545075    -3.106062    -3.132115    -0.708767    -5.938132    1.030259    -10.390376    -16.718695    -1.343153    -0.765265    25.139666    5.303275    19.921135    -4.507143    4.072234    -2.413305    -3.812056    4.515435    
5.509459    83.784225    -28.046713    1.215637    2.593323    -14.364788    -4.869435    -4.787215    -1.858109    -2.516818    7.223414    -1.495534    19.797129    25.671312    1.495314    -8.829312    -23.547955    0.365179    14.191381    13.543317    5.900853    -86.526451    78.857758    31.836035    10.980729    -8.206557    -90.268402    28.108210    -5.704351    -33.249786    -19.659250    -8.107008    4.910719    -174.436737    27.048655    165.127975    100.934433    12.286561    -68.747017    -82.348541    23.548206    84.434402    -0.660738    3.156658    5.895152    -0.420140    4.999497    2.749196    -3.129233    -2.582443    -3.555457    -0.616505    -5.966898    0.896324    -10.323830    -16.739462    -1.377995    -0.768252    24.215353    4.918057    19.109835    -4.466797    3.647087    -2.428797    -4.310501    4.571097    
5.343085    83.946297    -27.933090    1.147902    2.929168    -14.093317    -4.278278    -4.845909    -1.788644    -3.027553    7.066483    -1.420509    20.561113    25.493650    1.338973    -9.359246    -23.668285    0.046426    14.202936    13.772412    5.642130    -86.727882    79.208397    32.289337    11.290671    -8.056021    -90.566528    29.949444    -5.518438    -32.403645    -20.119705    -8.236411    4.274617    -174.436737    27.048655    165.127975    99.551476    14.240724    -70.116119    -82.460968    24.520985    84.607208    -0.412487    3.123107    6.020703    -0.373594    4.520762    2.854827    -3.671623    -2.049561    -4.105779    -0.565380    -6.015002    0.822261    -10.229939    -16.710445    -1.483260    -0.774508    23.186295    4.599340    18.899870    -4.574715    3.280804    -2.338717    -4.103286    4.390943    
5.227426    84.116386    -27.806129    1.197327    3.202054    -13.864887    -3.652180    -4.884125    -1.642225    -3.784086    6.886734    -1.258666    21.636749    25.327740    1.079823    -10.230308    -23.796316    -0.470674    14.403033    14.060305    5.352893    -86.244064    79.585388    31.935637    10.924689    -7.953883    -90.915108    31.083967    -6.243587    -32.953362    -20.490297    -8.316940    3.684268    -174.436737    27.048655    165.127975    98.520233    16.346684    -71.437523    -82.841949    25.795412    84.823708    -0.355099    3.126678    6.084368    -0.294805    4.029049    2.962250    -4.131197    -1.521887    -4.468416    -0.476610    -6.136033    0.693726    -10.346910    -16.640450    -1.490196    -0.639800    22.055195    4.261404    18.345675    -4.714921    2.903057    -2.271438    -4.051723    4.262128    
5.113669    84.270638    -27.676678    1.244463    3.439750    -13.618382    -2.991273    -4.891350    -1.442643    -4.587758    6.676690    -1.047104    22.604170    25.175671    0.728836    -10.881640    -23.930309    -1.019802    14.650137    14.817515    5.154666    -82.460648    80.102737    28.184944    12.202949    -7.547468    -90.749313    33.199341    -4.373951    -30.300806    -20.895599    -8.170845    3.145388    6.953135    -24.955479    29.069389    -22.946867    -20.743729    47.060413    -54.275265    -13.171679    4.349317    -0.310740    3.132808    6.177498    -0.201720    3.591742    2.960511    -4.553063    -0.996769    -4.822991    -0.473972    -6.231953    0.690333    -10.487996    -16.505569    -1.540569    -0.492138    20.821344    4.125112    17.951143    -4.843632    2.345433    -2.269244    -4.335243    4.272267    
5.010051    84.408859    -27.551825    1.288091    3.606648    -13.357196    -2.242420    -4.813107    -1.201629    -5.566182    6.468450    -0.792615    24.057648    24.878155    0.299036    -12.114902    -23.871052    -1.830687    14.996967    15.096783    4.712677    -81.214737    80.377037    26.990040    12.684403    -7.601694    -90.640633    33.641281    -3.779300    -29.357901    -21.115372    -8.239871    2.754515    4.838103    -25.035702    30.025431    -20.349880    -18.212132    40.986652    -54.113953    -14.055694    6.588547    -0.264186    3.195146    6.224427    -0.196598    3.180814    3.150590    -4.853131    -0.487548    -5.276524    -0.404038    -6.310893    0.588791    -10.691672    -16.268261    -1.466279    -0.135855    19.468407    3.663600    17.500652    -4.807821    1.981172    -2.230266    -4.548612    4.209566    
4.908785    84.524597    -27.425476    1.404960    3.769602    -13.109799    -1.459463    -4.745998    -0.904823    -6.831182    6.195411    -0.474275    25.478287    25.067474    -0.165776    -13.063044    -24.494440    -2.539559    15.566194    15.560735    4.213986    -78.747032    80.523956    24.556664    13.161950    -7.619501    -90.530884    34.059380    -3.110507    -28.326981    -20.972364    -7.865711    2.511790    2.411983    -25.033979    30.686148    -17.994396    -16.213284    35.103092    -53.288166    -14.116980    7.106030    -0.293557    3.210836    6.341199    -0.144143    2.841683    3.107758    -5.154986    -0.027974    -5.519247    -0.341136    -6.391463    0.497398    -10.957123    -16.027920    -1.444913    0.165127    18.032770    3.405386    17.217535    -4.762264    1.606131    -2.188600    -4.699552    4.138401    
